<?xml version="1.0" encoding="utf-8" ?>
<svg xmlns="http://www.w3.org/2000/svg" xmlns:xlink="http://www.w3.org/1999/xlink" width="46" height="46">
	<path fill="#633218" transform="scale(0.0606652 0.060849)" d="M-0 -0L768 0L768 768L-0 768L0 -0Z"/>
	<path fill="#4F2200" transform="scale(0.0606652 0.060849)" d="M443.257 253.637L442.688 252.184C442.36 251.418 442.026 250.776 441.941 249.938C441.87 249.231 441.88 248.644 441.628 247.969L438.484 239.193L433.746 229.688L434.25 229.688C435.028 231.3 436.142 233.645 437.344 234.939L437.625 234.188L435.738 230.796L435.449 230.384L435.888 229.897C438.385 234.511 440.755 239.286 442.482 244.249C442.995 245.721 443.796 247.668 443.849 249.208C443.503 249.879 443.161 250.184 443.273 250.937C443.408 251.839 443.317 252.732 443.257 253.637Z"/>
	<path fill="#4F2200" transform="scale(0.0606652 0.060849)" d="M406.779 165.835C406.069 165.411 405.79 165.408 405.438 164.629C402.098 157.249 399.977 149.16 396.881 141.628C391.149 127.682 383.549 113.565 379.881 98.9245C377.919 91.0926 377.166 83.8919 377.578 75.8176C377.727 72.8867 377.792 69.7508 378.579 66.9067C379.109 77.5552 379.826 87.3216 382.828 97.6254C385.44 106.592 389.329 114.813 393.071 123.334C398.363 135.387 403.439 147.469 406.517 160.311C406.906 161.931 407.835 164.122 407.394 165.729L406.779 165.835Z"/>
	<path fill="#ECBF90" transform="scale(0.0606652 0.060849)" d="M340.097 167.536C340.226 164.158 338.657 159.99 337.974 156.588C336.97 151.592 336.126 146.576 335.607 141.504C334.615 131.802 334.34 122.096 335.49 112.397C338.627 85.9574 351.163 61.9319 370.646 43.8624C376.313 38.6062 383.098 33.04 390.061 29.6153C365.471 55.8161 346.972 92.8581 348.082 129.453C348.568 145.46 352.599 161.676 360.186 175.812C367.58 189.586 378.078 201.289 387.56 213.595C400.822 230.808 413.604 251.734 413.695 274.09C413.742 285.615 409.954 295.764 402.043 304.239C388.925 318.291 367.901 326.903 348.751 327.408C345.992 327.481 343.236 327.501 340.5 327.107C327.128 325.181 314.72 319.052 306.443 308.148C303.487 304.252 301.703 300.118 300.411 295.436C300.012 290.601 300.818 286.699 302.743 282.291L304.676 289.972C308.602 300.899 318.068 309.81 328.41 314.747C340.934 320.726 354.869 320.05 367.772 315.458C378.529 311.628 388.102 303.804 393.018 293.382C399.174 280.332 395.605 263.489 390.873 250.551C389.234 245.85 386.466 241.24 383.893 236.996C380.004 230.584 375.914 224.401 371.293 218.487C370.872 217.706 370.389 217.08 369.855 216.375C367.783 213.638 364.531 209.783 361.625 208.01C361.489 205.99 357.281 201.217 356.032 199.346C352.083 193.43 347.813 187.469 344.557 181.142C342.994 177.567 339.915 171.34 340.097 167.536Z"/>
	<defs>
		<linearGradient id="gradient_0" gradientUnits="userSpaceOnUse" x1="435.87503" y1="378.81131" x2="331.7489" y2="222.68753">
			<stop offset="0" stop-color="#402101"/>
			<stop offset="1" stop-color="#622C05"/>
		</linearGradient>
	</defs>
	<path fill="url(#gradient_0)" transform="scale(0.0606652 0.060849)" d="M443.257 253.637C443.317 252.732 443.408 251.839 443.273 250.937C443.161 250.184 443.503 249.879 443.849 249.208L444.651 251.812C446.507 252.688 448.665 252.757 450.669 253.118L461.216 255.197C474.413 258.061 487.396 261.68 499.56 267.646C509.928 272.731 519.244 279.389 523.391 290.632C526.361 298.685 525.236 308.661 521.514 316.32C517.277 325.037 510.239 330.735 502.125 335.674C499.942 337.003 497.329 338.003 495.678 339.968C436.646 357.183 372.25 360.804 311.774 349.341L294.091 345.823C291.65 345.288 288.343 344.786 286.1 343.679L276.355 339.799C263.689 334.149 251.853 326.106 245.41 313.452C245.589 311.966 244.744 310.758 244.289 309.406C243.718 307.71 242.959 305.686 242.703 303.938C242.621 303.374 242.829 302.798 242.759 302.258C242.613 301.139 242.254 300.669 242.317 299.402L242.361 297.313C242.119 292.877 243.577 289.352 245.247 285.375C247.256 280.588 251.712 276.504 255.89 273.6C256.694 274.267 256.656 274.573 256.931 275.599L261.002 277.499C261.188 278.185 261.298 278.413 261.827 278.925C262.603 279.676 262.995 280.334 263.518 281.254C264.354 281.756 264.501 281.74 265.486 281.72L266.062 282.559L265.875 282.75C264.302 283.939 262.436 285.57 261.368 287.248C260.843 288.073 261.378 287.38 260.66 288.258C259.567 289.593 258.642 291.2 258.188 292.875L258 293.625C257.288 294.995 258.004 296.365 257.438 297.782L257.25 298.125C257.87 299.535 257.627 301.687 257.747 303.253L257.995 303C257.523 298.001 257.542 293.646 260.443 289.374L260.758 288.938C261.422 287.888 262.015 287.085 262.88 286.193C275.701 272.978 294.657 274.272 311.549 274.027C308.682 276.925 304.412 277.593 302.843 281.988L302.743 282.291C300.818 286.699 300.012 290.601 300.411 295.436C300.235 295.834 299.959 296.368 299.892 296.812C299.299 300.745 303.147 307.949 305.229 311.285C311.829 321.859 323.805 328.918 335.742 331.575C343.765 333.361 352.867 332.844 360.938 331.519C366.332 330.633 371.547 329.666 376.786 328.059C389.297 324.222 400.893 317.891 411.75 310.691L412.875 309.941C413.528 309.573 413.979 309.406 414.575 308.909C415.254 308.344 414.926 308.554 415.582 308.158C417.38 307.072 419.246 305.763 420.804 304.354L421.502 303.752C422.341 303.326 422.661 302.645 423.377 302.252C424.88 301.427 425.76 300.061 427.086 298.964C431.468 295.34 436.12 288.769 438.671 283.677L439.129 282.797C439.41 282.311 439.681 281.855 439.891 281.332L441.191 278.625C441.82 277.392 442.515 275.83 442.877 274.502L443.066 273.75C443.471 272.968 443.438 273.114 443.441 272.25C443.999 271.686 443.814 271.511 443.816 270.75C444.415 269.85 444.19 268.817 444.191 267.75C444.887 267.047 444.565 262.775 444.566 261.562C443.833 260.463 444.48 259.369 444.07 258.17C443.871 257.586 443.958 257.071 443.816 256.5C443.427 254.933 443.644 256.585 443.496 255.485L443.257 253.637Z"/>
	<path fill="#C07B00" transform="scale(0.0606652 0.060849)" d="M169.23 276.269L176.414 267.481C180.667 263.041 185.563 259.25 190.462 255.562C201.741 247.073 213.296 240.888 226.203 235.256C258.763 221.05 294.721 214.495 329.888 210.719C340.441 209.585 351.005 208.21 361.625 208.01C364.531 209.783 367.783 213.638 369.855 216.375C370.389 217.08 370.872 217.706 371.293 218.487C375.914 224.401 380.004 230.584 383.893 236.996C386.466 241.24 389.234 245.85 390.873 250.551C395.605 263.489 399.174 280.332 393.018 293.382C388.102 303.804 378.529 311.628 367.772 315.458C354.869 320.05 340.934 320.726 328.41 314.747C318.068 309.81 308.602 300.899 304.676 289.972L302.743 282.291L302.843 281.988C304.412 277.593 308.682 276.925 311.549 274.027C294.657 274.272 275.701 272.978 262.88 286.193C262.015 287.085 261.422 287.888 260.758 288.938L260.443 289.374C257.542 293.646 257.523 298.001 257.995 303L257.747 303.253C257.627 301.687 257.87 299.535 257.25 298.125L257.438 297.782C258.004 296.365 257.288 294.995 258 293.625L258.188 292.875C258.642 291.2 259.567 289.593 260.66 288.258C261.378 287.38 260.843 288.073 261.368 287.248C262.436 285.57 264.302 283.939 265.875 282.75L266.062 282.559L265.486 281.72C264.501 281.74 264.354 281.756 263.518 281.254C262.995 280.334 262.603 279.676 261.827 278.925C261.298 278.413 261.188 278.185 261.002 277.499L256.931 275.599C256.656 274.573 256.694 274.267 255.89 273.6C251.712 276.504 247.256 280.588 245.247 285.375C243.577 289.352 242.119 292.877 242.361 297.313L242.317 299.402C242.254 300.669 242.613 301.139 242.759 302.258C242.829 302.798 242.621 303.374 242.703 303.938C242.959 305.686 243.718 307.71 244.289 309.406C244.744 310.758 245.589 311.966 245.41 313.452C251.853 326.106 263.689 334.149 276.355 339.799L286.1 343.679L284.75 345.215C283.386 344.213 280.73 343.956 279.04 343.554L268.076 340.729L250.323 335.091L249.267 334.332L248.797 334.394L221.429 321.872C207.094 314.86 192.833 306.784 181.832 295.032C176.225 290.176 171.88 283.13 169.23 276.269Z"/>
	<path fill="#DA9648" transform="scale(0.0606652 0.060849)" d="M169.23 276.269L176.414 267.481C180.667 263.041 185.563 259.25 190.462 255.562C201.741 247.073 213.296 240.888 226.203 235.256C258.763 221.05 294.721 214.495 329.888 210.719C340.441 209.585 351.005 208.21 361.625 208.01C364.531 209.783 367.783 213.638 369.855 216.375C370.389 217.08 370.872 217.706 371.293 218.487L343.448 220.507C290.244 224.772 231.377 236.257 193.192 276.894C189.703 280.607 186.308 284.903 184.069 289.5C183.237 291.208 182.786 293.47 181.832 295.032C176.225 290.176 171.88 283.13 169.23 276.269Z"/>
	<path fill="#9B5406" transform="scale(0.0606652 0.060849)" d="M245.41 313.452C243.605 311.013 242.627 307.361 242.165 304.396C241.506 300.169 241.227 296.488 242.063 292.236C243.595 284.444 248.527 277.611 255.08 273.238C265.021 266.604 275.802 262.623 287.25 259.414C306.628 253.981 326.639 251.637 346.678 250.419C355.154 249.904 363.692 249.275 372.188 249.403L390.873 250.551C395.605 263.489 399.174 280.332 393.018 293.382C388.102 303.804 378.529 311.628 367.772 315.458C354.869 320.05 340.934 320.726 328.41 314.747C318.068 309.81 308.602 300.899 304.676 289.972L302.743 282.291L302.843 281.988C304.412 277.593 308.682 276.925 311.549 274.027C294.657 274.272 275.701 272.978 262.88 286.193C262.015 287.085 261.422 287.888 260.758 288.938L260.443 289.374C257.542 293.646 257.523 298.001 257.995 303L257.747 303.253C257.627 301.687 257.87 299.535 257.25 298.125L257.438 297.782C258.004 296.365 257.288 294.995 258 293.625L258.188 292.875C258.642 291.2 259.567 289.593 260.66 288.258C261.378 287.38 260.843 288.073 261.368 287.248C262.436 285.57 264.302 283.939 265.875 282.75L266.062 282.559L265.486 281.72C264.501 281.74 264.354 281.756 263.518 281.254C262.995 280.334 262.603 279.676 261.827 278.925C261.298 278.413 261.188 278.185 261.002 277.499L256.931 275.599C256.656 274.573 256.694 274.267 255.89 273.6C251.712 276.504 247.256 280.588 245.247 285.375C243.577 289.352 242.119 292.877 242.361 297.313L242.317 299.402C242.254 300.669 242.613 301.139 242.759 302.258C242.829 302.798 242.621 303.374 242.703 303.938C242.959 305.686 243.718 307.71 244.289 309.406C244.744 310.758 245.589 311.966 245.41 313.452Z"/>
	<path fill="#1D1E25" transform="scale(0.0606652 0.060849)" d="M674.736 479.297C675.132 479.006 675.563 478.452 676.081 478.59C677.712 479.026 680.098 481.981 681.333 483.221C690.037 491.964 698.666 501.469 705.758 511.574C709.189 516.463 712.202 521.745 714.677 527.179C722.144 543.57 723.497 565.222 716.992 582.087C711.785 595.589 703.17 605.831 692.665 615.556C675.523 631.424 655.656 642.901 634.875 653.314L607.688 666.357L567.375 681.78C544.997 689.614 522.123 697.055 499.06 702.604L450.562 711.795C428.964 715.199 406.725 717.613 384.838 717.666C370.616 717.7 356.307 716.159 342.17 714.718L298.027 709.196C279.652 706.001 261.627 701.245 243.714 696.11C224.898 690.717 206.299 684.934 188.051 677.803C168.223 670.056 148.861 661.337 129.97 651.535C118.332 645.497 107.473 639.229 96.5195 632.019C78.5252 620.176 61.5977 605.959 52.7057 585.822C44.7551 567.818 45.8378 547.462 52.9282 529.399C56.1912 521.086 60.8467 512.551 66.3595 505.5C70.3939 500.34 75.0761 495.762 79.6377 491.08C83.2542 487.368 86.7622 483.121 91.3205 480.544L92.1255 480.778C88.4314 487.658 85.1916 494.463 83.065 502.011C78.8595 516.938 79.01 536.138 83.5179 551.008C86.1915 559.827 89.8573 568.605 94.7799 576.414C95.9541 578.276 97.1878 580.501 98.6694 582.102C100.9 586.036 104.124 589.811 107.015 593.289C124.016 613.748 146.007 628.407 169.089 641.133C174.778 644.269 180.75 646.963 186.651 649.678C209.821 660.34 233.847 668.114 258.633 674.033C326.504 690.241 397.844 692.773 466.74 681.836C490.124 678.124 513.394 672.482 536.114 665.848L562.915 656.578C599.331 642.91 634.529 623.862 659.878 593.675C664.677 587.96 669.484 581.897 673.063 575.331L673.091 575.329C679.463 566.103 684.818 554.306 687.099 543.346C691.794 520.791 687.309 498.52 674.736 479.297Z"/>
	<defs>
		<linearGradient id="gradient_1" gradientUnits="userSpaceOnUse" x1="707.70007" y1="451.28641" x2="90.266495" y2="399.51471">
			<stop offset="0" stop-color="#F7E2CE"/>
			<stop offset="1" stop-color="white"/>
		</linearGradient>
	</defs>
	<path fill="url(#gradient_1)" transform="scale(0.0606652 0.060849)" d="M407.394 165.729C428.19 167.134 449.277 169.339 469.762 173.185C492.883 177.525 515.579 183.958 537.36 192.85C558.447 201.458 579.591 212.664 594.873 229.946C604.817 241.191 611.664 255.806 614.34 270.546C615.704 278.057 615.73 285.642 615.711 293.245C615.697 298.772 615.828 304.355 615.455 309.87L615.405 310.577C636.601 304.292 662.749 305.63 682.318 316.266C696.774 324.123 706.744 336.247 711.359 352.028C717.228 372.095 713.882 395.104 703.804 413.314C695.049 429.132 680.787 442.505 665.795 452.34C662.478 454.517 658.848 456.998 655.127 458.423C662.504 464.471 668.801 471.87 674.736 479.297C687.309 498.52 691.794 520.791 687.099 543.346C684.818 554.306 679.463 566.103 673.091 575.329L673.063 575.331C669.484 581.897 664.677 587.96 659.878 593.675C634.529 623.862 599.331 642.91 562.915 656.578L536.114 665.848C513.394 672.482 490.124 678.124 466.74 681.836C397.844 692.773 326.504 690.241 258.633 674.033C233.847 668.114 209.821 660.34 186.651 649.678C180.75 646.963 174.778 644.269 169.089 641.133C146.007 628.407 124.016 613.748 107.015 593.289C104.124 589.811 100.9 586.036 98.6694 582.102C97.1878 580.501 95.9541 578.276 94.7799 576.414C89.8573 568.605 86.1915 559.827 83.5179 551.008C79.01 536.138 78.8595 516.938 83.065 502.011C85.1916 494.463 88.4314 487.658 92.1255 480.778C94.9672 476.676 97.5507 472.477 100.761 468.633C112.873 454.132 129.524 441.259 145.515 431.271L164.006 420.587L154.472 369.339C151.611 346.262 150.93 322.866 151.092 299.638C151.171 288.393 150.912 276.71 153.37 265.688C155.997 253.908 161.192 242.786 168.658 233.289C190.123 205.986 226.039 192.448 258.253 182.943C274.319 178.202 290.674 174.158 307.211 171.426L340.097 167.536C339.915 171.34 342.994 177.567 344.557 181.142C347.813 187.469 352.083 193.43 356.032 199.346C357.281 201.217 361.489 205.99 361.625 208.01C351.005 208.21 340.441 209.585 329.888 210.719C294.721 214.495 258.763 221.05 226.203 235.256C213.296 240.888 201.741 247.073 190.462 255.562C185.563 259.25 180.667 263.041 176.414 267.481L169.23 276.269C171.88 283.13 176.225 290.176 181.832 295.032C192.833 306.784 207.094 314.86 221.429 321.872L248.797 334.394L249.267 334.332L250.323 335.091L268.076 340.729L279.04 343.554C280.73 343.956 283.386 344.213 284.75 345.215L286.1 343.679C288.343 344.786 291.65 345.288 294.091 345.823L311.774 349.341C372.25 360.804 436.646 357.183 495.678 339.968C497.329 338.003 499.942 337.003 502.125 335.674C510.239 330.735 517.277 325.037 521.514 316.32C525.236 308.661 526.361 298.685 523.391 290.632C519.244 279.389 509.928 272.731 499.56 267.646C487.396 261.68 474.413 258.061 461.216 255.197L450.669 253.118C448.665 252.757 446.507 252.688 444.651 251.812L443.849 249.208C443.796 247.668 442.995 245.721 442.482 244.249C440.755 239.286 438.385 234.511 435.888 229.897L431.429 221.606L424.749 209.203C419.497 199.902 414.597 190.074 411.239 179.921C410.302 176.502 408.975 173.136 407.822 169.781C407.413 168.592 406.664 167.106 406.779 165.835L407.394 165.729Z"/>
	<defs>
		<linearGradient id="gradient_2" gradientUnits="userSpaceOnUse" x1="415.75803" y1="686.5835" x2="410.17062" y2="592.57544">
			<stop offset="0" stop-color="#F9C690"/>
			<stop offset="1" stop-color="#F7DEC2"/>
		</linearGradient>
	</defs>
	<path fill="url(#gradient_2)" transform="scale(0.0606652 0.060849)" d="M98.6694 582.102C99.3377 582.329 99.75 582.447 100.223 583.006L100.592 583.5L101.344 584.439C101.665 584.977 101.628 585.201 102.109 585.685C103.582 587.164 104.448 589.143 105.906 590.607L106.309 591C106.78 591.549 107.078 592.08 107.63 592.572L107.998 592.877C108.21 593.516 108.071 593.34 108.484 593.781L109.594 594.939C114.149 600.97 120.609 605.799 125.859 611.205L126.656 612.002C127.757 612.714 128.593 613.519 129.559 614.438L129.938 614.441C130.863 615.548 132.719 617.224 133.969 617.906C134.757 618.336 134.495 618.007 135.184 618.562L137.595 620.463L138.281 621.002L138.938 621.191L139.781 622.127C140.073 622.339 140.429 622.453 140.711 622.678L141.184 623.062L141.75 623.441L142.406 624.002C142.982 624.348 143.431 624.501 143.976 624.951L144.656 625.502L145.125 625.691L145.594 626.156C147.314 627.303 145.491 625.789 146.59 626.728L146.906 627.002C147.454 627.325 147.972 627.539 148.5 627.941C149.035 628.35 149.323 628.664 149.998 628.877L150.75 629.066L151.309 629.438L151.875 629.066C152.245 628.327 152.131 628.17 152.066 627.375C152.595 626.579 152.439 626.053 152.441 625.125C152.875 624.587 152.992 624.41 153.189 623.719C152.138 622.759 150.708 622.096 149.781 621.17L149.441 620.812L149.062 620.809L147.844 619.406C146.604 618.633 147.722 619.683 146.678 618.639L146.25 618.188L145.688 618.184L144.844 617.156C143.14 615.92 145.18 617.891 143.678 616.389L143.25 615.938L142.688 615.934L141.844 614.906C140.14 613.67 142.18 615.641 140.678 614.139L140.25 613.688L139.688 613.684L138.844 612.656C136.781 611.158 139.189 613.273 137.831 612.082C136.599 611.001 134.919 610.06 133.835 608.981L133.5 608.625L132.938 608.25L132.094 607.406C131.416 606.97 130.839 606.27 130.219 605.906L129.562 605.625L128.719 604.781C127.881 604.164 127.351 603.917 126.626 603.1L126.375 602.812L125.812 602.809L124.875 601.688L124.312 601.684C123.918 601.192 123.251 600.223 122.719 599.906C121.591 599.236 120.913 598.504 120 597.562L119.438 597.559L118.689 596.719C118.205 596.172 117.805 595.625 117.158 595.266C116.306 594.792 115.569 594.134 114.958 593.374C111.122 588.603 105.948 584.445 101.654 580.031L101.812 579.758C105.313 582.371 108.361 585.991 111.479 589.064L122.788 599.289L146.135 617.37C149.811 620.129 153.351 623.023 157.218 625.525C170.718 634.258 185.593 641.776 200.299 648.268C239.582 665.607 280.861 675.195 323.43 679.672C357.559 683.262 391.061 683.819 425.25 681.009C440.576 679.75 455.877 678.318 471.033 675.638C492.248 671.888 512.772 666.449 533.225 659.694C552.653 653.278 571.304 645.954 589.346 636.216C604.635 627.964 619.647 618.453 633.502 607.953L649.564 594.672L664.219 581.641C666.048 579.964 669.184 576.27 671.443 575.46C671.838 575.318 672.62 575.367 673.063 575.331C669.484 581.897 664.677 587.96 659.878 593.675C634.529 623.862 599.331 642.91 562.915 656.578L536.114 665.848C513.394 672.482 490.124 678.124 466.74 681.836C397.844 692.773 326.504 690.241 258.633 674.033C233.847 668.114 209.821 660.34 186.651 649.678C180.75 646.963 174.778 644.269 169.089 641.133C146.007 628.407 124.016 613.748 107.015 593.289C104.124 589.811 100.9 586.036 98.6694 582.102Z"/>
	<path fill="#633218" transform="scale(0.0606652 0.060849)" d="M615.637 346.509C622.386 346.262 629.269 345.833 636.01 346.338C648.918 347.305 662.25 351.683 671.888 360.563C676.364 364.688 680.056 369.868 680.253 376.136C680.757 392.136 670.138 408.452 659.481 419.557C654.137 425.125 648.072 429.963 641.79 434.427C639.015 436.398 635.805 438.234 633.253 440.451C630.886 437.176 627.322 434.731 624.042 432.456L609.375 423.054C606.845 421.538 604.116 419.526 601.335 418.564C602.96 414.501 603.911 409.899 605.008 405.662C609.039 390.1 612.227 374.214 614.085 358.241C614.452 355.086 615.209 351.512 614.885 348.365L615.637 346.509Z"/>
	<path fill="#D7DFBC" transform="scale(0.0606652 0.060849)" d="M344.557 181.142C347.813 187.469 352.083 193.43 356.032 199.346C357.281 201.217 361.489 205.99 361.625 208.01C351.005 208.21 340.441 209.585 329.888 210.719C294.721 214.495 258.763 221.05 226.203 235.256C213.296 240.888 201.741 247.073 190.462 255.562C185.563 259.25 180.667 263.041 176.414 267.481L169.23 276.269C168.579 274.678 168.406 272.927 168.261 271.226C167.175 258.424 171.545 247.982 179.684 238.306C186.509 230.193 194.891 224.315 203.918 218.893C227.081 204.982 252.296 197.055 278.451 190.846L303.52 185.478C317.208 183.246 330.757 182.26 344.557 181.142Z"/>
	<path fill="#D7DFBC" transform="scale(0.0606652 0.060849)" d="M411.239 179.921C414.063 179.558 416.926 180.089 419.746 180.319L436.855 181.949C464.035 184.666 490.7 189.408 516.805 197.526C537.515 203.967 557.215 212.365 574.456 225.736C587.483 235.838 597.679 248.624 599.838 265.416C600.259 268.689 600.363 271.915 598.82 274.915C595.663 280.856 591.393 286.985 586.735 291.843C576.23 305.799 561.982 313.9 546.858 322.009C539.85 325.351 532.664 328.911 525.261 331.266L495.678 339.968C497.329 338.003 499.942 337.003 502.125 335.674C510.239 330.735 517.277 325.037 521.514 316.32C525.236 308.661 526.361 298.685 523.391 290.632C519.244 279.389 509.928 272.731 499.56 267.646C487.396 261.68 474.413 258.061 461.216 255.197L450.669 253.118C448.665 252.757 446.507 252.688 444.651 251.812L443.849 249.208C443.796 247.668 442.995 245.721 442.482 244.249C440.755 239.286 438.385 234.511 435.888 229.897L431.429 221.606L424.749 209.203C419.497 199.902 414.597 190.074 411.239 179.921Z"/>
	<path fill="#DA9648" transform="scale(0.0606652 0.060849)" d="M424.749 209.203L467.813 215.07L495.468 221.333C511.103 225.231 526.362 229.807 541.377 235.685C549.103 238.709 556.944 241.948 564.188 246.016C572.349 250.599 580.005 256.325 587.025 262.501C590.522 265.578 594.335 268.766 597.141 272.496L598.82 274.915C595.663 280.856 591.393 286.985 586.735 291.843C583.783 286.967 581.067 282.487 577.209 278.235C562.141 261.627 543.368 250.437 522.828 242.031C502.056 233.531 480.611 228.199 458.438 224.872C449.606 223.547 440.35 222.074 431.429 221.606L424.749 209.203Z"/>
	<path fill="#9B5406" transform="scale(0.0606652 0.060849)" d="M431.429 221.606C440.35 222.074 449.606 223.547 458.438 224.872C480.611 228.199 502.056 233.531 522.828 242.031C543.368 250.437 562.141 261.627 577.209 278.235C581.067 282.487 583.783 286.967 586.735 291.843C576.23 305.799 561.982 313.9 546.858 322.009C539.85 325.351 532.664 328.911 525.261 331.266L495.678 339.968C497.329 338.003 499.942 337.003 502.125 335.674C510.239 330.735 517.277 325.037 521.514 316.32C525.236 308.661 526.361 298.685 523.391 290.632C519.244 279.389 509.928 272.731 499.56 267.646C487.396 261.68 474.413 258.061 461.216 255.197L450.669 253.118C448.665 252.757 446.507 252.688 444.651 251.812L443.849 249.208C443.796 247.668 442.995 245.721 442.482 244.249C440.755 239.286 438.385 234.511 435.888 229.897L431.429 221.606Z"/>
	<path fill="#ECBF90" transform="scale(0.0606652 0.060849)" d="M552.433 332.792C562.186 328.773 571.567 322.814 580.565 317.335C588.239 312.661 596.412 308.045 603.253 302.204C607.083 298.935 609.879 295.744 612.525 291.464L612.348 306.22C612.391 308.006 612.308 310.114 613.557 311.482C614.18 312.165 614.332 312.762 614.473 313.66C615.109 317.714 614.882 322.215 615.1 326.324L615.941 339.132C616.038 341.116 616.288 343.417 615.987 345.371C615.901 345.931 615.827 346.049 615.637 346.509L614.885 348.365C615.209 351.512 614.452 355.086 614.085 358.241C612.227 374.214 609.039 390.1 605.008 405.662C603.911 409.899 602.96 414.501 601.335 418.564C598.222 431.026 593.233 443.246 588.555 455.199C574.494 491.129 555.616 527.16 527.049 553.761C518.147 562.05 508.187 569.096 497.778 575.349L480.511 584.379C478.873 585.645 476.295 586.406 474.375 587.227C461.158 592.883 447.719 596.709 433.714 599.852C429.838 600.722 425.834 601.874 421.884 602.286L421.877 602.148C422.639 598.89 428.354 595.853 431.02 593.789C432.801 592.41 434.456 590.876 436.114 589.354C441.573 584.344 447.135 579.274 452.197 573.861C458.4 567.227 464.109 559.989 469.578 552.741C475.972 544.267 482.006 535.758 487.317 526.548C490.962 520.227 493.748 513.693 496.793 507.084L503.438 492.543C511.5 472.98 517.718 452.431 523.32 432.044L534.621 387.623L542.228 354.253C543.482 348.444 545.137 342.664 545.392 336.705C547.485 335.558 549.956 334.633 551.865 333.227L552.433 332.792Z"/>
	<path fill="#F7ECD9" transform="scale(0.0606652 0.060849)" d="M480.511 584.379C480.59 584.084 480.543 583.722 480.746 583.495C481.38 582.787 483.417 581.902 484.316 581.357L492.479 576.054C500.092 570.724 506.123 564.702 512.405 557.914C521.043 548.58 528.667 538.865 536.003 528.485C545.405 515.182 554.447 501.321 562.117 486.938C568.053 475.805 573.186 464.2 578.12 452.596C584.304 438.051 589.742 423.573 593.955 408.326C597.123 396.859 599.306 385.16 601.621 373.502L611.454 322.362C612.651 329.962 615.727 338.326 615.133 346.032L614.885 348.365C615.209 351.512 614.452 355.086 614.085 358.241C612.227 374.214 609.039 390.1 605.008 405.662C603.911 409.899 602.96 414.501 601.335 418.564C598.222 431.026 593.233 443.246 588.555 455.199C574.494 491.129 555.616 527.16 527.049 553.761C518.147 562.05 508.187 569.096 497.778 575.349L480.511 584.379Z"/>
	<path fill="#CEAF99" transform="scale(0.0606652 0.060849)" d="M601.335 418.564C604.116 419.526 606.845 421.538 609.375 423.054L624.042 432.456C627.322 434.731 630.886 437.176 633.253 440.451C629.28 443.757 624.327 446.344 619.951 449.106C609.006 456.014 598.027 462.889 586.573 468.929C590.652 473.14 595.44 476.8 598.5 481.875C605.943 494.223 608.64 508.39 608.669 522.679C608.681 528.462 608.354 534.347 607.039 540C602.869 557.937 592.362 573.867 578.672 586.027C572.296 591.691 564.918 596.614 557.638 601.053C538.685 612.611 516.919 620.154 495.562 625.932C473.952 631.779 451.939 636.382 429.675 638.901C412.217 640.876 394.273 641.26 376.714 640.91C347.364 640.325 318.175 637.345 289.618 630.312C261.684 623.432 234.73 614.431 209.816 599.827C193.699 590.379 179.3 579.385 169.523 563.085C158.578 544.838 157.361 521.801 162.534 501.474C165.003 491.77 168.289 483.683 173.824 475.287C175.752 472.362 177.698 469.53 180.195 467.053C193.948 501.107 213.349 535.069 240.74 560.036C253.929 572.057 270.769 582.686 287.116 589.624L303.458 595.791C318.401 600.963 334.721 603.787 350.438 605.24C355.949 605.749 361.472 606.313 367.01 606.423C369.688 606.97 372.951 606.669 375.692 606.657C390.959 606.591 406.941 605.484 421.884 602.286C425.834 601.874 429.838 600.722 433.714 599.852C447.719 596.709 461.158 592.883 474.375 587.227C476.295 586.406 478.873 585.645 480.511 584.379L497.778 575.349C508.187 569.096 518.147 562.05 527.049 553.761C555.616 527.16 574.494 491.129 588.555 455.199C593.233 443.246 598.222 431.026 601.335 418.564Z"/>
	<path fill="white" transform="scale(0.0606652 0.060849)" d="M495.678 339.968L525.261 331.266C517.369 368.502 507.72 405.185 495.372 441.209C482.805 477.869 467.359 514.95 444.469 546.461C434.932 559.589 423.569 571.203 411.154 581.622C406.404 585.608 401.403 589.795 396.196 593.168L383.209 600.871L377.535 603.929C376.173 604.612 374.572 605.154 373.5 606.256L367.01 606.423C361.472 606.313 355.949 605.749 350.438 605.24C334.721 603.787 318.401 600.963 303.458 595.791L304.097 595.299C303.879 593.858 303.015 592.495 302.432 591.159L299.344 583.5L287.969 552.233C285.937 546.784 283.492 541.578 281.682 536.038C273.816 511.961 267.84 487.193 263.372 462.27L258.543 429.453L250.913 366.539L249.478 345.73C249.277 341.944 248.833 338.109 249.267 334.332L250.323 335.091L268.076 340.729L279.04 343.554C280.73 343.956 283.386 344.213 284.75 345.215L286.1 343.679C288.343 344.786 291.65 345.288 294.091 345.823L311.774 349.341C372.25 360.804 436.646 357.183 495.678 339.968Z"/>
	<path fill="#F7ECD9" transform="scale(0.0606652 0.060849)" d="M495.678 339.968L525.261 331.266C517.369 368.502 507.72 405.185 495.372 441.209C482.805 477.869 467.359 514.95 444.469 546.461C434.932 559.589 423.569 571.203 411.154 581.622C406.404 585.608 401.403 589.795 396.196 593.168L383.209 600.871L377.535 603.929C376.173 604.612 374.572 605.154 373.5 606.256L367.01 606.423C361.472 606.313 355.949 605.749 350.438 605.24C334.721 603.787 318.401 600.963 303.458 595.791L304.097 595.299C303.879 593.858 303.015 592.495 302.432 591.159L299.344 583.5L287.969 552.233C285.937 546.784 283.492 541.578 281.682 536.038C273.816 511.961 267.84 487.193 263.372 462.27L258.543 429.453L250.913 366.539L249.478 345.73C249.277 341.944 248.833 338.109 249.267 334.332L250.323 335.091L259.785 426.574L266.823 472.735C271.332 496.346 277.76 519.761 285.537 542.494L316.784 518.52L365.083 480.862L395.59 457.483L415.875 441.759C435.764 425.217 453.587 407.116 471.734 388.744L497.711 361.012C500.122 358.167 502.725 355.501 504.856 352.43C507.436 348.711 510.281 343.125 510.947 338.625C510.509 339.041 510.373 339.382 510.188 339.941L509.438 339.191C508.719 339.429 509.014 339.216 508.613 339.715C507.996 340.485 507.457 341.132 506.551 341.564C502.398 343.543 497.193 344.529 492.75 345.74C478.245 349.696 463.462 353.486 448.659 356.182L429.934 358.688C413.797 360.284 397.45 361.846 381.222 361.925C348.377 362.085 315.609 356.482 284.75 345.215L286.1 343.679C288.343 344.786 291.65 345.288 294.091 345.823L311.774 349.341C372.25 360.804 436.646 357.183 495.678 339.968Z"/>
</svg>
